<svg id="azo-logo" xmlns="http://www.w3.org/2000/svg" width="200" height="72" viewBox="0 0 200 72"><desc>UTI &amp; UTI & Yeast Infection Relief - AZO Products</desc><path class="logo-fill" d="M33.75,.11c-4.4,0-6.84,2.59-8.47,6.8l-1.7,4.39L3.04,64.47l-1.01,2.58-1.18,3.1H6.38l2.2-5.68,3.98-10.23H47.75l3.98,10.23,2.21,5.68h13.71l.08-.12-2.19-5.56L44.31,11.3l-1.77-4.39C40.92,2.7,38.31,.11,33.75,.11M14.2,50.16L26.58,17.65c1.01-2.3,1.95-3.8,3.74-3.8s2.61,1.5,3.59,4.04l11.73,32.24-31.44,.03Z" style="fill: #071f60;"></path>
            <path class="logo-fill" d="M113.35,8.77h-41.99v3.71h28.09c3.7,0,5.33,1.62,5.33,3.6-.11,1.22-.58,2.39-1.33,3.36l-31.78,45.04-3.92,5.56-.08,.12h55.51v-3.72h-29.63c-2.48,0-4.04-.64-4.54-1.96-.14-.36-.21-.75-.2-1.14,.08-.93,.43-1.82,1.01-2.56l28.69-40.67c1.63-2.23,3.55-4.34,3.55-6.57,.02-.76-.17-1.51-.56-2.17-1.11-1.78-3.85-2.54-8.17-2.54" style="fill: #071f60;"></path>
            <path class="logo-fill" d="M158.73,6.91c-6.46-.14-12.86,1.37-18.57,4.4-10.56,5.86-15.78,16.8-15.78,28.09-.12,9.66,4.11,18.87,11.51,25.07,5.56,4.53,13.14,7.42,22.84,7.42s17.49-2.86,23.13-7.42c7.43-6.18,11.66-15.4,11.49-25.07,.15-11.62-6.05-22.39-16.17-28.09-5.68-3.01-12.04-4.53-18.47-4.4m-5.68,4.4c1.86-.46,3.77-.69,5.68-.68,1.88,0,3.76,.22,5.58,.68,11.57,2.96,17.51,15.25,17.51,28.09,0,10.35-3.59,20.01-10.79,25.07-3.6,2.48-7.88,3.77-12.25,3.69-4.25,.07-8.41-1.22-11.87-3.69-7.29-5.21-10.91-15.16-10.91-25.07,0-13.23,5.59-25.16,17.09-28.09" style="fill: #071f60;"></path>
            <path class="logo-fill" d="M199.18,65.81c.07,2.48-1.88,4.56-4.36,4.63-2.48,.07-4.56-1.88-4.63-4.36-.07-2.48,1.88-4.56,4.36-4.63,.04,0,.09,0,.13,0,2.43-.05,4.45,1.88,4.5,4.31v.06Zm-7.87,0c-.06,1.87,1.4,3.44,3.28,3.51,.05,0,.09,0,.14,0,1.85,0,3.35-1.52,3.34-3.37,0-.03,0-.06,0-.1,0-1.86-1.5-3.38-3.37-3.38-1.86,0-3.38,1.5-3.38,3.37h0v-.02Zm2.69,2.31h-1.07v-4.39c.55-.1,1.12-.14,1.68-.13,.53-.04,1.06,.07,1.53,.32,.27,.24,.43,.59,.42,.95-.03,.51-.4,.93-.9,1.03v.08c.44,.19,.74,.6,.8,1.07,.05,.38,.15,.75,.31,1.11h-1.09c-.16-.34-.28-.7-.34-1.07,0-.48-.34-.71-.92-.71h-.48l.06,1.73Zm0-2.48h.5c.55,0,1.01-.19,1.01-.65s-.31-.67-.93-.67c-.19-.03-.38-.03-.57,0v1.32Z" style="fill: #071f60;"></path>
          </svg>