<svg xmlns="http://www.w3.org/2000/svg" width="15.136" height="12.293" viewBox="0 0 15.136 12.293">
  <path id="Icon_awesome-twitter" data-name="Icon awesome-twitter" d="M13.58,6.445c.01.134.01.269.01.4a8.766,8.766,0,0,1-8.826,8.826A8.767,8.767,0,0,1,0,14.282a6.418,6.418,0,0,0,.749.038A6.213,6.213,0,0,0,4.6,12.995a3.108,3.108,0,0,1-2.9-2.151,3.912,3.912,0,0,0,.586.048,3.281,3.281,0,0,0,.816-.106A3.1,3.1,0,0,1,.615,7.741V7.7a3.124,3.124,0,0,0,1.4.394,3.107,3.107,0,0,1-.96-4.149,8.818,8.818,0,0,0,6.4,3.246,3.5,3.5,0,0,1-.077-.711A3.105,3.105,0,0,1,12.745,4.36a6.108,6.108,0,0,0,1.969-.749,3.094,3.094,0,0,1-1.364,1.71,6.219,6.219,0,0,0,1.786-.48,6.668,6.668,0,0,1-1.556,1.6Z" transform="translate(0 -3.381)" fill="#fe0011"/>
</svg>
