<svg xmlns="http://www.w3.org/2000/svg" width="13.243" height="13.241" viewBox="0 0 13.243 13.241">
  <path id="Icon_awesome-blogger-b" data-name="Icon awesome-blogger-b" d="M13.2,7.892a.852.852,0,0,0-.37-.547,3.569,3.569,0,0,0-.739-.08c-.594-.027-.659-.038-.848-.148-.3-.174-.378-.364-.381-.872a3.815,3.815,0,0,0-1.209-2.7,4.511,4.511,0,0,0-1.936-1.2,10.342,10.342,0,0,0-1.871-.086c-2.052-.024-2.507.018-3.2.3A4.2,4.2,0,0,0,.1,5.533,20.727,20.727,0,0,0,.007,8.6c-.018,3,0,3.441.189,4.035a4.156,4.156,0,0,0,3.086,2.788c.438.08,5.833.1,6.386.024a3.959,3.959,0,0,0,2.421-1.239,4.047,4.047,0,0,0,1.041-1.836A33.551,33.551,0,0,0,13.2,7.892ZM3.682,6.012c.231-.234.3-.242,1.738-.242,1.3,0,1.342,0,1.531.1a.651.651,0,0,1,.4.647.7.7,0,0,1-.364.639c-.136.086-.216.092-1.487.1A14.452,14.452,0,0,1,4,7.218a.753.753,0,0,1-.313-1.206Zm5.67,5.907-.44.071-2.291.027a15.347,15.347,0,0,1-2.687-.059.822.822,0,0,1-.44-.574.835.835,0,0,1,.242-.662c.21-.189.3-.2,2.877-.2,2.649,0,2.634,0,2.885.231A.73.73,0,0,1,9.352,11.919Z" transform="translate(-0.002 -2.258)" fill="#fe0011"/>
</svg>
