<svg id="installation_icon" data-name="installation icon" xmlns="http://www.w3.org/2000/svg" xmlns:xlink="http://www.w3.org/1999/xlink" width="39.877" height="40" viewBox="0 0 39.877 40">
  <defs>
    <clipPath id="clip-path">
      <rect id="Rectangle_40" data-name="Rectangle 40" width="39.877" height="40" fill="#fff"/>
    </clipPath>
  </defs>
  <g id="Group_38" data-name="Group 38" clip-path="url(#clip-path)">
    <path id="Path_2" data-name="Path 2" d="M121.41,0c.216.034.431.074.648.1a.908.908,0,0,1,.841.593.887.887,0,0,1-.287.985c-.627.625-1.263,1.242-1.876,1.88a4.163,4.163,0,0,0,5.7,6.063c.677-.628,1.323-1.292,1.969-1.953a.993.993,0,0,1,1.108-.371c.438.161.533.54.583.97a9.189,9.189,0,0,1-1.788,6.846A9.17,9.17,0,0,1,120,18.921a13.871,13.871,0,0,1-2.177-.414.424.424,0,0,0-.472.133c-.357.378-.73.742-1.06,1.074a15.633,15.633,0,0,0-1.472-.731,3.057,3.057,0,0,0-2.177.069.479.479,0,0,1-.4-.024c-1.116-1.091-2.216-2.2-3.349-3.331.717-.716,1.375-1.457,2.123-2.094a1.539,1.539,0,0,0,.522-1.844A9.4,9.4,0,0,1,117.876.441c.665-.207,1.365-.3,2.049-.441Z" transform="translate(-90.297)" fill="#fff"/>
    <path id="Path_3" data-name="Path 3" d="M22.17,33.807c.17-.2.355-.454.577-.669a1.251,1.251,0,0,1,1.9.005C28.6,37.09,32.573,41.021,36.493,45a4.026,4.026,0,1,1-5.8,5.59Q27.842,47.755,25,44.9L19.094,38.99a1.335,1.335,0,0,1,.008-2.211c.175-.174.368-.329.512-.456L6.645,23.355a4.247,4.247,0,0,1-.423.533,1.257,1.257,0,0,1-2-.148Q2.31,21.172.427,18.582a1.262,1.262,0,0,1,.132-1.736q1.067-1.088,2.155-2.154a1.261,1.261,0,0,1,1.706-.136q2.6,1.9,5.186,3.823a1.25,1.25,0,0,1,.155,1.97,6.343,6.343,0,0,1-.564.486L22.17,33.807" transform="translate(-0.118 -11.847)" fill="#fff"/>
    <path id="Path_4" data-name="Path 4" d="M13.255,122.838c1.159,1.162,2.264,2.264,3.358,3.376a.335.335,0,0,1,.048.3,3.362,3.362,0,0,0,.629,3.726,1.852,1.852,0,0,1-.135.169c-3.424,3.425-6.836,6.861-10.277,10.268a4.023,4.023,0,0,1-6.167-.537,4.062,4.062,0,0,1,.283-4.957c.095-.107.194-.211.295-.312q5.9-5.9,11.79-11.793a2.4,2.4,0,0,0,.177-.237" transform="translate(0 -101.868)" fill="#fff"/>
  </g>
</svg>
