<svg id="warranty-icon" xmlns="http://www.w3.org/2000/svg" xmlns:xlink="http://www.w3.org/1999/xlink" width="58.848" height="40" viewBox="0 0 58.848 40">
  <defs>
    <clipPath id="clip-path">
      <rect id="Rectangle_54" data-name="Rectangle 54" width="58.848" height="40" fill="#fff"/>
    </clipPath>
  </defs>
  <g id="Group_48" data-name="Group 48" clip-path="url(#clip-path)">
    <path id="Path_20" data-name="Path 20" d="M8.428,27.778a5.665,5.665,0,0,1,.761.258,23.5,23.5,0,0,1,2.948,1.546c1.272.884,2.4,1.97,3.648,2.894,2.993,2.219,6,4.424,9.047,6.565a7.928,7.928,0,0,0,2.285.905A.943.943,0,0,0,28.3,39.5a1.373,1.373,0,0,0,0-1.567c-.843-1.153-1.648-2.335-2.462-3.509-.463-.668-.427-1.231.084-1.578.544-.369,1.042-.223,1.5.449.751,1.092,1.519,2.173,2.238,3.286a4.108,4.108,0,0,0,2.785,1.8,1.4,1.4,0,0,0,1.815-1.748,2.631,2.631,0,0,0-.448-1c-.689-1.009-1.418-1.99-2.121-2.989a1.031,1.031,0,0,1,.129-1.538c.5-.358,1.016-.216,1.465.421.763,1.084,1.554,2.15,2.266,3.267a5.289,5.289,0,0,0,2.9,2.105,1.294,1.294,0,0,0,1.911-.96,2.669,2.669,0,0,0-.392-2.478c-.72-1.038-1.45-2.069-2.162-3.113a.965.965,0,0,1,.132-1.431,1.047,1.047,0,0,1,1.465.325c.076.1.143.2.213.306.655.957,1.335,1.9,1.958,2.875A3.958,3.958,0,0,0,44.439,34.2a1.53,1.53,0,0,0,1.9-1.455,2.943,2.943,0,0,0-.878-2.361q-7.873-9.051-15.73-18.115c-.6-.694-.979-.721-1.707-.129-.177.144-.341.3-.515.449-2.62,2.193-5.446,4.023-8.895,4.558-3.28.509-6.186-.193-8.281-3.013-1.014-1.365-1.529-2.806-.5-4.473l-1.4-.46Zm41.791-.292c.018-.178.04-.3.04-.419q0-9.605.011-19.21c0-.432-.18-.544-.552-.643C47.66,6.669,45.6,6.138,43.559,5.519A28.788,28.788,0,0,1,37.2,2.91,20.867,20.867,0,0,0,27.179.007,5.643,5.643,0,0,0,23.31,1.1q-5.74,4.61-11.459,9.245a1.18,1.18,0,0,0-.422,1.591,4.485,4.485,0,0,0,.485.863c1.509,2.169,3.683,2.757,6.163,2.5a13.173,13.173,0,0,0,6.091-2.479,27.829,27.829,0,0,0,2.709-2.172,2.942,2.942,0,0,1,4.446.237q5.782,6.75,11.565,13.5,1.735,2.025,3.48,4.053c1.114-1.02,2.446-1,3.851-.947M6.638,4.165H1.655C.37,4.166,0,4.534,0,5.839q0,4.2,0,8.392,0,9.2,0,18.4c0,1.179.344,1.52,1.516,1.523q2.268,0,4.537,0c.2,0,.392-.018.583-.028ZM52.206,34.148c1.888,0,3.71.012,5.531-.007a1.028,1.028,0,0,0,1.08-.988,4.148,4.148,0,0,0,.029-.619q0-13.334,0-26.668c0-.1,0-.207,0-.311-.044-.965-.476-1.387-1.439-1.389q-2.362-.006-4.723,0c-.157,0-.315.029-.477.045Z" transform="translate(0 0)" fill="#fff"/>
    <path id="Path_21" data-name="Path 21" d="M50.854,74.085V55.507l1.4.46c-1.024,1.666-.51,3.108.5,4.472,2.1,2.82,5,3.521,8.281,3.013,3.449-.535,6.275-2.364,8.895-4.558.175-.146.339-.305.515-.449.727-.592,1.1-.565,1.707.129q7.864,9.059,15.73,18.115a2.943,2.943,0,0,1,.878,2.361,1.53,1.53,0,0,1-1.9,1.455,3.959,3.959,0,0,1-2.856-1.782c-.624-.977-1.3-1.918-1.958-2.875-.07-.1-.137-.208-.213-.306a1.047,1.047,0,0,0-1.465-.325.965.965,0,0,0-.132,1.431c.712,1.044,1.442,2.075,2.162,3.113a2.669,2.669,0,0,1,.392,2.478,1.294,1.294,0,0,1-1.911.96,5.29,5.29,0,0,1-2.9-2.105c-.711-1.117-1.5-2.183-2.266-3.267-.449-.638-.964-.78-1.465-.421a1.031,1.031,0,0,0-.129,1.538c.7,1,1.432,1.98,2.121,2.989a2.633,2.633,0,0,1,.448,1,1.4,1.4,0,0,1-1.815,1.748,4.107,4.107,0,0,1-2.785-1.8c-.719-1.113-1.487-2.194-2.238-3.286-.462-.673-.961-.818-1.5-.449-.511.347-.547.91-.084,1.578.814,1.174,1.619,2.356,2.462,3.509a1.373,1.373,0,0,1,0,1.567.943.943,0,0,1-1.183.449,7.921,7.921,0,0,1-2.285-.9C64.209,83.207,61.2,81,58.21,78.784c-1.246-.924-2.376-2.01-3.648-2.894a23.519,23.519,0,0,0-2.948-1.546,5.642,5.642,0,0,0-.761-.258" transform="translate(-42.426 -46.308)" fill="#fff"/>
    <path id="Path_22" data-name="Path 22" d="M107.023,27.486c-1.4-.049-2.737-.073-3.851.947q-1.746-2.033-3.48-4.053-5.784-6.749-11.565-13.5a2.942,2.942,0,0,0-4.446-.237,27.784,27.784,0,0,1-2.709,2.172,13.17,13.17,0,0,1-6.091,2.479c-2.48.259-4.653-.329-6.162-2.5a4.468,4.468,0,0,1-.485-.863,1.18,1.18,0,0,1,.422-1.591Q74.381,5.713,80.115,1.1A5.644,5.644,0,0,1,83.983.007a20.868,20.868,0,0,1,10.023,2.9,28.775,28.775,0,0,0,6.357,2.608c2.037.619,4.1,1.15,6.159,1.695.372.1.553.211.552.643q-.021,9.605-.011,19.21c0,.12-.022.241-.04.419" transform="translate(-56.804 -0.001)" fill="#fff"/>
    <path id="Path_23" data-name="Path 23" d="M6.638,25.128v29.96c-.191.01-.387.028-.583.028q-2.268,0-4.537,0C.346,55.115,0,54.774,0,53.6q0-9.2,0-18.4Q0,31,0,26.8C0,25.5.37,25.129,1.655,25.129H6.638" transform="translate(0 -20.964)" fill="#fff"/>
    <path id="Path_24" data-name="Path 24" d="M315.009,55.106V25.17c.163-.016.32-.044.477-.045q2.362,0,4.723,0c.963,0,1.395.424,1.439,1.389,0,.1,0,.207,0,.311q0,13.334,0,26.668a4.153,4.153,0,0,1-.029.62,1.028,1.028,0,0,1-1.08.988c-1.822.019-3.643.007-5.531.007" transform="translate(-262.803 -20.959)" fill="#fff"/>
  </g>
</svg>
