<svg xmlns="http://www.w3.org/2000/svg" width="51.859" height="40.859" viewBox="0 0 51.859 40.859">
  <g id="windy-strong" transform="translate(8.75 -2.25)">
    <path id="Path_29" data-name="Path 29" d="M17.633,37.093a7.305,7.305,0,0,1-7.3-7.3h2.919a4.378,4.378,0,1,0,4.378-4.378H-5.5V22.5H17.633a7.3,7.3,0,0,1,0,14.593Z" transform="translate(0.669 6.017)" fill="#fff"/>
    <path id="Path_30" data-name="Path 30" d="M35.813,31.468a7.305,7.305,0,0,1-7.3-7.3h2.919a4.378,4.378,0,1,0,4.378-4.378H-8.75V16.875H35.813a7.3,7.3,0,0,1,0,14.593Z" transform="translate(0 4.345)" fill="#fff"/>
    <path id="Path_31" data-name="Path 31" d="M28.639,16.843H-4.25V13.924H28.639a4.378,4.378,0,1,0-4.378-4.378H21.343a7.3,7.3,0,1,1,7.3,7.3Z" transform="translate(1.337)" fill="#fff"/>
  </g>
</svg>
