<svg id="icon-organize" xmlns="http://www.w3.org/2000/svg" xmlns:xlink="http://www.w3.org/1999/xlink" width="93.261" height="70.733" viewBox="0 0 93.261 70.733">
  <defs>
    <clipPath id="clip-path">
      <rect id="Rectangle_30" data-name="Rectangle 30" width="93.261" height="70.733" fill="#105fad" stroke="#105fad" stroke-width="1"/>
    </clipPath>
  </defs>
  <g id="Group_11" data-name="Group 11" clip-path="url(#clip-path)">
    <path id="Path_10" data-name="Path 10" d="M0,47.751C.784,45.5,2.418,44.7,4.726,44.807c2.086.1,4.181.021,6.373.021.017-.367.044-.686.045-1.005q.005-3.87,0-7.74c0-2.087.5-2.591,2.556-2.591q14.98,0,29.96,0h1.111V25.9h-.968c-2.095,0-4.189.019-6.283-.007a3.624,3.624,0,0,1-3.833-3.833q-.035-9.106,0-18.213A3.6,3.6,0,0,1,37.512.019q9.106-.038,18.213,0a3.6,3.6,0,0,1,3.84,3.818q.035,9.015,0,18.031a3.637,3.637,0,0,1-3.906,3.854c-2.363.022-4.727,0-7.157,0v7.766H79.081c.273,0,.547,0,.82,0,1.6.03,2.191.6,2.2,2.212.017,2.671,0,5.342,0,8.014v1.11h1.034c2.095,0,4.189-.022,6.283.009a3.729,3.729,0,0,1,3.817,3.808q.041,9.152,0,18.3a3.58,3.58,0,0,1-3.72,3.759q-9.243.047-18.485,0a3.494,3.494,0,0,1-3.66-3.6q-.068-9.333,0-18.667a3.526,3.526,0,0,1,3.681-3.593c2.427-.038,4.855-.009,7.36-.009v-7.7H48.489v7.7h.843c2.095,0,4.189-.013,6.283,0a3.654,3.654,0,0,1,3.951,3.9q.029,9.06,0,18.121a3.614,3.614,0,0,1-3.892,3.86q-9.06.032-18.121,0a3.615,3.615,0,0,1-3.866-3.886q-.029-9.061,0-18.122a3.639,3.639,0,0,1,3.886-3.874c2.365-.022,4.73,0,7.17,0v-7.7H14.809v7.7h.949c2.064,0,4.128-.014,6.192,0a3.636,3.636,0,0,1,3.948,3.9q.044,9.06,0,18.121a3.594,3.594,0,0,1-3.887,3.861c-6.01.022-12.021,0-18.031.014A3.932,3.932,0,0,1,0,67.786Zm22.271.815H3.689V67.084H22.271ZM89.6,48.477H70.986V66.8H89.6ZM37.332,67.07H55.907V48.561H37.332ZM55.926,3.659H37.336V21.965l18.589.344Z" transform="translate(0 0)" fill="#105fad" stroke="#105fad" stroke-width="1"/>
  </g>
</svg>
