<svg id="icon-assesment" xmlns="http://www.w3.org/2000/svg" xmlns:xlink="http://www.w3.org/1999/xlink" width="57.636" height="70.733" viewBox="0 0 57.636 70.733">
  <defs>
    <clipPath id="clip-path">
      <rect id="Rectangle_31" data-name="Rectangle 31" width="57.636" height="70.733" fill="#105fad"/>
    </clipPath>
  </defs>
  <g id="Group_13" data-name="Group 13" clip-path="url(#clip-path)">
    <path id="Path_11" data-name="Path 11" d="M0,37.83c0-7.892-.013-15.785,0-23.678a8.919,8.919,0,0,1,7.7-9.085A35.119,35.119,0,0,1,13.1,4.955a.906.906,0,0,0,1.028-.742A5.678,5.678,0,0,1,20.046,0Q28.8,0,37.556,0a5.692,5.692,0,0,1,5.962,4.255.863.863,0,0,0,.982.7,37.033,37.033,0,0,1,5.39.109,8.921,8.921,0,0,1,7.732,9.062c.026,5.5.007,11,.007,16.5q0,15.386,0,30.773a9.008,9.008,0,0,1-6.84,9.04,10.437,10.437,0,0,1-2.517.278q-19.438.025-38.877.009A9.036,9.036,0,0,1,.007,61.353Q-.006,49.592,0,37.83M44.44,9.9c-.06.17-.111.288-.145.412a5.715,5.715,0,0,1-5.788,4.49q-9.678.032-19.356,0a5.692,5.692,0,0,1-5.776-4.4.629.629,0,0,0-.751-.542c-1.053.027-2.108.006-3.162.009-2.842.009-4.519,1.666-4.52,4.493q-.006,23.479,0,46.957A4.123,4.123,0,0,0,9.41,65.793q19.395.007,38.789,0a5.714,5.714,0,0,0,1.375-.127,4.149,4.149,0,0,0,3.118-4.392q0-23.44,0-46.88a6.846,6.846,0,0,0-.118-1.3,3.965,3.965,0,0,0-3.53-3.172c-1.51-.076-3.028-.016-4.6-.016M28.821,9.874q4.737,0,9.475,0c.985,0,1.29-.27,1.17-1.245-.115-.932-.4-1.843-.6-2.766a1.1,1.1,0,0,0-1.274-.934c-2.285.027-4.57.01-6.855.01q-5.354,0-10.707,0c-.484,0-.975.02-1.129.577a23.813,23.813,0,0,0-.729,3.049c-.146,1.061.16,1.311,1.252,1.312q4.7,0,9.4,0" transform="translate(0 0)" fill="#105fad"/>
    <path id="Path_12" data-name="Path 12" d="M54.166,121.474c1.494-1.562,2.953-3.078,4.4-4.605a2.455,2.455,0,0,1,2.063-.842,2.294,2.294,0,0,1,2.073,1.49,2.377,2.377,0,0,1-.467,2.652c-1.012,1.094-2.053,2.162-3.082,3.241-1.011,1.06-2.015,2.128-3.038,3.177a2.48,2.48,0,0,1-3.9,0c-1.1-1.149-2.211-2.3-3.3-3.461a2.46,2.46,0,0,1-.01-3.635,2.5,2.5,0,0,1,3.583.234c.555.564,1.1,1.142,1.681,1.753" transform="translate(-38.213 -92.158)" fill="#105fad"/>
    <path id="Path_13" data-name="Path 13" d="M54.158,217.493c1.485-1.552,2.945-3.067,4.391-4.594a2.461,2.461,0,0,1,2.133-.85,2.288,2.288,0,0,1,2.035,1.538,2.4,2.4,0,0,1-.524,2.642c-1.268,1.348-2.553,2.68-3.831,4.019-.781.818-1.548,1.65-2.348,2.449a2.447,2.447,0,0,1-3.74-.029q-1.692-1.742-3.353-3.516a2.46,2.46,0,0,1-.037-3.636,2.514,2.514,0,0,1,3.637.261c.537.551,1.062,1.113,1.636,1.715" transform="translate(-38.209 -168.429)" fill="#105fad"/>
    <path id="Path_14" data-name="Path 14" d="M153.129,132.017c2.13,0,4.261-.008,6.391,0a2.491,2.491,0,0,1,2.689,2.45,2.522,2.522,0,0,1-2.683,2.477q-6.391.022-12.783,0a2.518,2.518,0,0,1-2.648-2.512,2.472,2.472,0,0,1,2.643-2.413c2.13-.014,4.261,0,6.391,0" transform="translate(-114.461 -104.864)" fill="#105fad"/>
    <path id="Path_15" data-name="Path 15" d="M153.234,228.033c2.1,0,4.21-.007,6.314,0a2.473,2.473,0,1,1,.056,4.926q-6.43.024-12.86,0a2.45,2.45,0,0,1-2.537-2.028,2.388,2.388,0,0,1,1.436-2.689,3.659,3.659,0,0,1,1.276-.2c2.1-.02,4.21-.009,6.314-.009" transform="translate(-114.514 -181.134)" fill="#105fad"/>
  </g>
</svg>
