<svg xmlns="http://www.w3.org/2000/svg" xmlns:xlink="http://www.w3.org/1999/xlink" width="76" height="76" viewBox="0 0 76 76">
  <defs>
    <clipPath id="clip-path">
      <rect id="Rectangle_32" data-name="Rectangle 32" width="76" height="76" fill="#105fad"/>
    </clipPath>
  </defs>
  <g id="icon-strategy" transform="translate(-0.163 -0.205)">
    <g id="Group_15" data-name="Group 15" transform="translate(0.163 0.205)" clip-path="url(#clip-path)">
      <path id="Path_16" data-name="Path 16" d="M40.293,0c1.389.191,2.785.337,4.163.587,1.356.246,2.7.564,4.035.916a2.369,2.369,0,1,1-1.258,4.555A33.265,33.265,0,0,0,34.56,4.909a32.262,32.262,0,0,0-15.382,5.662A31.945,31.945,0,0,0,5.462,31.254C3.1,43.623,6.691,54.189,15.948,62.721a31.223,31.223,0,0,0,17.169,8.021,32.237,32.237,0,0,0,24.821-6.4A32.467,32.467,0,0,0,70.755,42.679a32.307,32.307,0,0,0-.939-13.922c-.528-1.846.584-3.378,2.338-3.291a2.22,2.22,0,0,1,2.137,1.746c.521,2.456.944,4.932,1.4,7.4.058.312.1.627.15.941v4.74c-.042.191-.1.38-.125.572-.258,1.755-.42,3.529-.779,5.262A37.929,37.929,0,0,1,44.529,75.261c-1.407.228-2.824.391-4.236.585h-4.74c-.165-.04-.328-.094-.5-.119-1.73-.253-3.478-.42-5.19-.763A37.926,37.926,0,0,1,.593,44.606C.361,43.174.2,41.731,0,40.293v-4.74c.242-1.68.424-3.371.736-5.038A37.918,37.918,0,0,1,31.314.584C32.721.352,34.14.193,35.553,0Z" transform="translate(-0.171 -0.174)" fill="#105fad"/>
      <path id="Path_17" data-name="Path 17" d="M220.281,14.369a18.189,18.189,0,0,1-1.344,1.725c-2.458,2.5-4.965,4.947-7.414,7.454a3.831,3.831,0,0,1-2.537,1.178q-5.379.5-10.75,1.071a1.724,1.724,0,0,0-.911.522q-6.561,6.527-13.092,13.084a2.461,2.461,0,0,1-2.325.839,2.364,2.364,0,0,1-1.281-3.923c.586-.633,1.214-1.229,1.825-1.839q5.732-5.733,11.471-11.46a1.9,1.9,0,0,0,.614-1.269c.321-3.537.7-7.069,1.032-10.6a3.575,3.575,0,0,1,1.113-2.333c2.518-2.472,4.989-4.993,7.5-7.469A18.219,18.219,0,0,1,205.912,0H207.1a2.97,2.97,0,0,1,1.824,2.906c.113,2.434.373,4.861.546,7.292.031.435.182.584.616.615,2.432.173,4.858.435,7.292.546a2.971,2.971,0,0,1,2.905,1.824Zm-20.909,6.539c2.992-.3,5.878-.6,8.763-.9a.685.685,0,0,0,.382-.186q1.957-1.961,3.9-3.941c.018-.018-.016-.087-.029-.149-1.446-.111-2.894-.242-4.345-.33-2.324-.143-3.03-.841-3.157-3.185-.007-.123-.008-.247-.018-.37-.11-1.333-.222-2.667-.345-4.149-1.439,1.438-2.764,2.755-4.076,4.085a.81.81,0,0,0-.182.46c-.3,2.842-.585,5.686-.889,8.665" transform="translate(-144.606 -0.174)" fill="#105fad"/>
      <path id="Path_18" data-name="Path 18" d="M59.661,86.244a26.3,26.3,0,0,1,20.717-26.1,25.454,25.454,0,0,1,12.236.339,2.32,2.32,0,0,1,1.839,2.3,2.22,2.22,0,0,1-1.691,2.244,3.993,3.993,0,0,1-1.738-.079,21.4,21.4,0,1,0,15.931,24.041,22.291,22.291,0,0,0-.433-8.741,3.267,3.267,0,0,1,0-1.587,2.21,2.21,0,0,1,2.237-1.6A2.316,2.316,0,0,1,111,78.783a25.006,25.006,0,0,1,.935,7.164,26.01,26.01,0,0,1-20.57,25.278c-9.832,2.005-18.28-.781-25.066-8.167a24.807,24.807,0,0,1-6.636-16.814" transform="translate(-48.048 -47.969)" fill="#105fad"/>
      <path id="Path_19" data-name="Path 19" d="M134.518,124.784a9.459,9.459,0,1,0,9.137,9.88,5.5,5.5,0,0,1,.068-.957,2.367,2.367,0,0,1,2.581-1.85,2.341,2.341,0,0,1,2.087,2.392c-.185,5.818-2.84,10.172-8.051,12.747a14.21,14.21,0,1,1-5.266-26.977,4.83,4.83,0,0,1,1.234.21,2.347,2.347,0,0,1-.68,4.552c-.369.02-.739,0-1.109,0" transform="translate(-96.429 -96.465)" fill="#105fad"/>
    </g>
  </g>
</svg>
