<svg xmlns="http://www.w3.org/2000/svg" width="22.221" height="15" viewBox="0 0 22.221 15">
  <path id="email" d="M.072,17.739V5.4q0-.021.064-.407L7.4,11.2.158,18.168a1.816,1.816,0,0,1-.086-.429ZM1.036,4.132A.923.923,0,0,1,1.4,4.068H20.965a1.213,1.213,0,0,1,.386.064l-7.286,6.236-.964.771L11.193,12.7,9.286,11.139l-.964-.771ZM1.058,19,8.365,12l2.829,2.293L14.022,12,21.329,19a1.029,1.029,0,0,1-.364.064H1.4A.971.971,0,0,1,1.058,19Zm13.929-7.8,7.243-6.214a1.279,1.279,0,0,1,.064.407V17.739a1.642,1.642,0,0,1-.064.429Z" transform="translate(-0.072 -4.068)" fill="#fd4804"/>
</svg>
