<svg xmlns="http://www.w3.org/2000/svg" width="16.172" height="16.171" viewBox="0 0 16.172 16.171">
  <g id="insta" transform="translate(-921.544)">
    <path id="Icon_simple-instagram" data-name="Icon simple-instagram" d="M8.086,0c-2.2,0-2.471.01-3.333.049A5.962,5.962,0,0,0,2.79.425a3.96,3.96,0,0,0-1.433.933A3.945,3.945,0,0,0,.425,2.79,5.945,5.945,0,0,0,.049,4.752C.008,5.615,0,5.889,0,8.086s.01,2.471.049,3.333a5.966,5.966,0,0,0,.376,1.963,3.965,3.965,0,0,0,.933,1.433,3.954,3.954,0,0,0,1.433.933,5.97,5.97,0,0,0,1.963.376c.862.04,1.137.049,3.333.049s2.471-.01,3.333-.049a5.984,5.984,0,0,0,1.963-.376,4.132,4.132,0,0,0,2.365-2.365,5.966,5.966,0,0,0,.376-1.963c.04-.862.049-1.137.049-3.333s-.01-2.471-.049-3.333a5.98,5.98,0,0,0-.376-1.963,3.968,3.968,0,0,0-.933-1.433A3.94,3.94,0,0,0,13.382.425,5.948,5.948,0,0,0,11.419.049C10.557.008,10.282,0,8.086,0Zm0,1.455c2.158,0,2.416.011,3.268.048a4.455,4.455,0,0,1,1.5.28,2.661,2.661,0,0,1,1.535,1.534,4.464,4.464,0,0,1,.278,1.5c.038.853.047,1.109.047,3.268s-.01,2.416-.05,3.268a4.55,4.55,0,0,1-.284,1.5,2.567,2.567,0,0,1-.606.931,2.523,2.523,0,0,1-.93.6,4.5,4.5,0,0,1-1.506.278c-.858.038-1.111.047-3.274.047s-2.416-.01-3.274-.05a4.585,4.585,0,0,1-1.507-.284,2.5,2.5,0,0,1-.929-.606,2.455,2.455,0,0,1-.606-.93,4.589,4.589,0,0,1-.283-1.506c-.03-.849-.041-1.111-.041-3.264s.011-2.416.041-3.275a4.584,4.584,0,0,1,.283-1.505,2.4,2.4,0,0,1,.606-.931,2.392,2.392,0,0,1,.929-.605,4.475,4.475,0,0,1,1.5-.284c.859-.03,1.112-.04,3.274-.04l.03.02Zm0,2.478a4.152,4.152,0,1,0,4.152,4.152A4.152,4.152,0,0,0,8.086,3.934Zm0,6.847a2.7,2.7,0,1,1,2.7-2.7A2.695,2.695,0,0,1,8.086,10.781ZM13.372,3.77a.97.97,0,1,1-.97-.97A.971.971,0,0,1,13.372,3.77Z" transform="translate(921.544 0)" fill="#fd4804"/>
  </g>
</svg>
