<?xml version="1.0" encoding="UTF-8"?>
<svg width="20px" height="20px" viewBox="0 0 20 20" version="1.1" xmlns="http://www.w3.org/2000/svg" xmlns:xlink="http://www.w3.org/1999/xlink">
    <title>Group</title>
    <g id="Page-1" stroke="none" stroke-width="1" fill="none" fill-rule="evenodd">
        <g id="Top-Bottom-Content---AH092624" transform="translate(-387, -7466)" fill="#FFFFFF" fill-rule="nonzero">
            <g id="Group-3" transform="translate(386.9704, 7170)">
                <g id="Group" transform="translate(0.0296, 296)">
                    <path d="M10,2.22044605e-16 C4.48615,2.22044605e-16 0,4.48615 0,9.99998 C0,11.63768 0.43135,13.16838 1.13086,14.53318 L0.04688,18.41408 C-0.2056,19.31578 0.68596,20.20728 1.58789,19.95508 L5.47168,18.87108 C6.83537,19.56918 8.3639,19.99998 10,19.99998 C15.5139,19.99998 20,15.51388 20,9.99998 C20,4.48615 15.5139,2.22044605e-16 10,2.22044605e-16 Z M10,1.5 C14.7031,1.5 18.5,5.29686 18.5,9.99998 C18.5,14.70318 14.7031,18.49998 10,18.49998 C8.4992,18.49998 7.0953,18.10978 5.87109,17.42778 C5.69853,17.33158 5.495,17.30738 5.30469,17.36038 L1.61133,18.39058 L2.64258,14.69918 C2.69585,14.50858 2.67163,14.30468 2.5752,14.13188 C1.89183,12.90678 1.5,11.50228 1.5,9.99998 C1.5,5.29686 5.29685,1.5 10,1.5 Z M5.75,7.5 C5.65062,7.4986 5.55194,7.51696 5.45972,7.55402 C5.36749,7.59108 5.28355,7.6461 5.21277,7.71588 C5.142,7.78567 5.08579,7.86882 5.04743,7.96051 C5.00907,8.05218 4.98932,8.15058 4.98932,8.24998 C4.98932,8.34938 5.00907,8.44778 5.04743,8.53948 C5.08579,8.63118 5.142,8.71438 5.21277,8.78408 C5.28355,8.85388 5.36749,8.90888 5.45972,8.94598 C5.55194,8.98308 5.65062,9.00138 5.75,8.99998 L14.25,8.99998 C14.3494,9.00138 14.4481,8.98308 14.5403,8.94598 C14.6325,8.90888 14.7164,8.85388 14.7872,8.78408 C14.858,8.71438 14.9142,8.63118 14.9526,8.53948 C14.9909,8.44778 15.0107,8.34938 15.0107,8.24998 C15.0107,8.15058 14.9909,8.05218 14.9526,7.96051 C14.9142,7.86882 14.858,7.78567 14.7872,7.71588 C14.7164,7.6461 14.6325,7.59108 14.5403,7.55402 C14.4481,7.51696 14.3494,7.4986 14.25,7.5 L5.75,7.5 Z M5.75,10.99998 C5.65062,10.99858 5.55194,11.01698 5.45972,11.05398 C5.36749,11.09108 5.28355,11.14608 5.21277,11.21588 C5.142,11.28568 5.08579,11.36878 5.04743,11.46048 C5.00907,11.55218 4.98932,11.65058 4.98932,11.74998 C4.98932,11.84938 5.00907,11.94778 5.04743,12.03948 C5.08579,12.13118 5.142,12.21438 5.21277,12.28408 C5.28355,12.35388 5.36749,12.40888 5.45972,12.44598 C5.55194,12.48308 5.65062,12.50138 5.75,12.49998 L12.25,12.49998 C12.3494,12.50138 12.4481,12.48308 12.5403,12.44598 C12.6325,12.40888 12.7164,12.35388 12.7872,12.28408 C12.858,12.21438 12.9142,12.13118 12.9526,12.03948 C12.9909,11.94778 13.0107,11.84938 13.0107,11.74998 C13.0107,11.65058 12.9909,11.55218 12.9526,11.46048 C12.9142,11.36878 12.858,11.28568 12.7872,11.21588 C12.7164,11.14608 12.6325,11.09108 12.5403,11.05398 C12.4481,11.01698 12.3494,10.99858 12.25,10.99998 L5.75,10.99998 Z" id="Shape"></path>
                </g>
            </g>
        </g>
    </g>
</svg>