<svg xmlns="http://www.w3.org/2000/svg" width="17" height="17" viewBox="0 0 17 17">
  <g id="icon_-_mail" data-name="icon - mail" transform="translate(0.174 0.019)">
    <path id="Subtraction_1" data-name="Subtraction 1" d="M13.817,17H3.187a3.085,3.085,0,0,1-2.252-.935A3.08,3.08,0,0,1,0,13.813V3.187A3.083,3.083,0,0,1,.936.935,3.071,3.071,0,0,1,3.181,0H13.812a3.079,3.079,0,0,1,2.253.935A3.075,3.075,0,0,1,17,3.187V13.813A3.192,3.192,0,0,1,13.817,17ZM11.773,4.948h0L6.45,11.475v2.151a.4.4,0,0,0,.26.37.318.318,0,0,0,.135.025.361.361,0,0,0,.3-.143L8.639,12.06,11.432,13.2a.408.408,0,0,0,.148.032.38.38,0,0,0,.192-.05.386.386,0,0,0,.2-.277l1.579-9.47a.391.391,0,0,0-.586-.408L2.7,8.947a.39.39,0,0,0,.05.7l2.435,1Z" transform="translate(-0.174 -0.019)" fill="#fff"/>
  </g>
</svg>
