<svg xmlns="http://www.w3.org/2000/svg" width="16.975" height="16.975" viewBox="0 0 16.975 16.975">
  <path id="linkedin-rect" d="M3.333.009A3.336,3.336,0,0,0,.007,3.336V13.658a3.336,3.336,0,0,0,3.327,3.326H13.656a3.335,3.335,0,0,0,3.326-3.326V3.336A3.336,3.336,0,0,0,13.656.009Zm.837,2.8a1.337,1.337,0,1,1-.017,2.665H4.137A1.336,1.336,0,1,1,4.17,2.81Zm7.558,3.537c1.687,0,2.951,1.1,2.951,3.472v4.423H12.116V10.116c0-1.037-.371-1.744-1.3-1.744A1.4,1.4,0,0,0,9.5,9.309a1.75,1.75,0,0,0-.084.626v4.308H6.854s.033-6.99,0-7.714H9.417V7.621a2.545,2.545,0,0,1,2.311-1.273Zm-8.857.182H5.435v7.713H2.871V6.529Z" transform="translate(-0.007 -0.009)" fill="#fff"/>
</svg>
