<svg xmlns="http://www.w3.org/2000/svg" width="16.982" height="16.982" viewBox="0 0 16.982 16.982">
  <path id="twitter-square" d="M14.152,5.329a4.922,4.922,0,0,1-1.338.376,2.258,2.258,0,0,0,1.028-1.293,4.607,4.607,0,0,1-1.482.564,2.207,2.207,0,0,0-1.692-.73A2.322,2.322,0,0,0,8.347,6.567,2.133,2.133,0,0,0,8.4,7.1,6.576,6.576,0,0,1,5.727,6.38,6.569,6.569,0,0,1,3.6,4.666a2.3,2.3,0,0,0-.321,1.172A2.19,2.19,0,0,0,4.29,7.773a2.735,2.735,0,0,1-1.106-.287v.022a2.208,2.208,0,0,0,.553,1.476,2.32,2.32,0,0,0,1.36.8,2.152,2.152,0,0,1-.564.089A3.1,3.1,0,0,1,4.1,9.829a2.36,2.36,0,0,0,.824,1.15,2.205,2.205,0,0,0,1.343.464,4.588,4.588,0,0,1-2.886.995,4.48,4.48,0,0,1-.553-.033,6.514,6.514,0,0,0,3.56,1.039,6.766,6.766,0,0,0,2.322-.392A5.98,5.98,0,0,0,10.57,12,6.971,6.971,0,0,0,11.9,10.487,6.683,6.683,0,0,0,13,6.833q0-.2-.011-.3a4.511,4.511,0,0,0,1.161-1.205Zm2.83-2.145V13.8A3.189,3.189,0,0,1,13.8,16.982H3.184a3.068,3.068,0,0,1-2.25-.934A3.065,3.065,0,0,1,0,13.8V3.184A3.068,3.068,0,0,1,.934.934,3.065,3.065,0,0,1,3.184,0H13.8a3.068,3.068,0,0,1,2.25.934A3.065,3.065,0,0,1,16.982,3.184Z" fill="#fff"/>
</svg>
