<svg xmlns="http://www.w3.org/2000/svg" width="16.211" height="16.207" viewBox="0 0 16.211 16.207">
  <path id="Icon_awesome-instagram" data-name="Icon awesome-instagram" d="M8.1,6.186a4.155,4.155,0,1,0,4.155,4.155A4.149,4.149,0,0,0,8.1,6.186Zm0,6.857a2.7,2.7,0,1,1,2.7-2.7,2.706,2.706,0,0,1-2.7,2.7ZM13.4,6.016a.969.969,0,1,1-.969-.969A.967.967,0,0,1,13.4,6.016ZM16.149,7A4.8,4.8,0,0,0,14.84,3.6a4.828,4.828,0,0,0-3.4-1.309c-1.338-.076-5.349-.076-6.687,0A4.821,4.821,0,0,0,1.361,3.6,4.812,4.812,0,0,0,.052,7c-.076,1.338-.076,5.349,0,6.687a4.8,4.8,0,0,0,1.309,3.4,4.834,4.834,0,0,0,3.4,1.309c1.338.076,5.349.076,6.687,0a4.8,4.8,0,0,0,3.4-1.309,4.828,4.828,0,0,0,1.309-3.4c.076-1.338.076-5.345,0-6.683ZM14.42,15.119a2.735,2.735,0,0,1-1.541,1.541c-1.067.423-3.6.325-4.777.325s-3.714.094-4.777-.325a2.735,2.735,0,0,1-1.541-1.541c-.423-1.067-.325-3.6-.325-4.777s-.094-3.714.325-4.777A2.735,2.735,0,0,1,3.325,4.023C4.391,3.6,6.923,3.7,8.1,3.7s3.714-.094,4.777.325A2.735,2.735,0,0,1,14.42,5.564c.423,1.067.325,3.6.325,4.777S14.843,14.056,14.42,15.119Z" transform="translate(0.005 -2.238)" fill="#547f52"/>
</svg>
