<svg xmlns="http://www.w3.org/2000/svg" width="18.517" height="18.517" viewBox="0 0 18.517 18.517">
  <path id="Icon_awesome-link" data-name="Icon awesome-link" d="M11.812,6.7a5.494,5.494,0,0,1,.013,7.761l-.013.013-2.43,2.43A5.5,5.5,0,0,1,1.608,9.135L2.95,7.793a.578.578,0,0,1,.987.384,6.664,6.664,0,0,0,.35,1.907.582.582,0,0,1-.137.6l-.473.473a2.6,2.6,0,1,0,3.659,3.706l2.43-2.43a2.6,2.6,0,0,0,0-3.683,2.709,2.709,0,0,0-.374-.31.58.58,0,0,1-.251-.456,1.441,1.441,0,0,1,.423-1.078l.761-.761a.581.581,0,0,1,.744-.063,5.515,5.515,0,0,1,.742.622Zm5.1-5.1a5.5,5.5,0,0,0-7.774,0L6.7,4.038l-.013.013a5.5,5.5,0,0,0,.755,8.383.581.581,0,0,0,.744-.063l.761-.761a1.441,1.441,0,0,0,.423-1.078.58.58,0,0,0-.251-.456,2.709,2.709,0,0,1-.374-.31,2.6,2.6,0,0,1,0-3.683l2.43-2.43a2.6,2.6,0,1,1,3.659,3.706l-.473.473a.582.582,0,0,0-.137.6,6.664,6.664,0,0,1,.35,1.907.578.578,0,0,0,.987.384l1.342-1.342a5.5,5.5,0,0,0,0-7.774Z" transform="translate(0 0)" fill="#547f52"/>
</svg>
