<svg xmlns="http://www.w3.org/2000/svg" width="18.516" height="15.039" viewBox="0 0 18.516 15.039">
  <path id="Icon_awesome-twitter" data-name="Icon awesome-twitter" d="M16.613,7.129c.012.164.012.329.012.493a10.723,10.723,0,0,1-10.8,10.8A10.724,10.724,0,0,1,0,16.716a7.851,7.851,0,0,0,.916.047,7.6,7.6,0,0,0,4.711-1.621A3.8,3.8,0,0,1,2.08,12.51a4.786,4.786,0,0,0,.717.059,4.014,4.014,0,0,0,1-.129A3.8,3.8,0,0,1,.752,8.715V8.668a3.822,3.822,0,0,0,1.715.482A3.8,3.8,0,0,1,1.292,4.074,10.787,10.787,0,0,0,9.117,8.045a4.284,4.284,0,0,1-.094-.869,3.8,3.8,0,0,1,6.568-2.6A7.472,7.472,0,0,0,18,3.663a3.785,3.785,0,0,1-1.668,2.091,7.608,7.608,0,0,0,2.185-.587A8.158,8.158,0,0,1,16.613,7.129Z" transform="translate(0 -3.381)" fill="#547f52"/>
</svg>
